<svg width="44" height="44" viewBox="0 0 44 44" fill="none" xmlns="http://www.w3.org/2000/svg">
<rect width="44" height="44" rx="13" fill="#FED281"/>
<path d="M11.5001 23.5001C11.497 20.9369 12.4316 18.4612 14.1277 16.5395C15.8238 14.6178 18.1643 13.3829 20.7079 13.0675C23.2516 12.752 25.8228 13.3779 27.9369 14.8271C30.051 16.2764 31.562 18.4488 32.1851 20.9351C32.8991 21.2771 33.5081 21.7991 33.9551 22.4441C33.7848 20.5235 33.1542 18.6722 32.1167 17.047C31.0792 15.4217 29.6653 14.0704 27.9949 13.1075C26.3244 12.1446 24.4465 11.5984 22.5201 11.5151C20.5938 11.4318 18.6758 11.814 16.9284 12.6292C15.1811 13.4444 13.6559 14.6687 12.4821 16.1983C11.3082 17.7279 10.5202 19.5179 10.1849 21.4167C9.8495 23.3154 9.9766 25.267 10.5554 27.1062C11.1342 28.9455 12.1477 30.6181 13.5101 31.9826C13.6515 32.1192 13.841 32.1948 14.0376 32.1931C14.2343 32.1914 14.4224 32.1125 14.5614 31.9734C14.7005 31.8344 14.7794 31.6463 14.7811 31.4496C14.7828 31.253 14.7072 31.0635 14.5706 30.9221C13.5954 29.948 12.8222 28.7909 12.2953 27.5172C11.7684 26.2436 11.4981 24.8784 11.5001 23.5001ZM28.9556 20.6891C28.3015 19.077 27.1076 17.7424 25.5781 16.9135C24.0486 16.0845 22.2785 15.8129 20.5709 16.145C18.8632 16.477 17.3239 17.3922 16.2165 18.7339C15.1091 20.0756 14.5024 21.7604 14.5001 23.5001C14.5001 25.5671 15.3371 27.4406 16.6901 28.7966C16.8313 28.9334 17.0207 29.0093 17.2173 29.0079C17.414 29.0064 17.6022 28.9278 17.7415 28.789C17.8807 28.6501 17.9599 28.4621 17.9618 28.2654C17.9638 28.0688 17.8885 27.8792 17.7521 27.7376C17.1217 27.1044 16.6407 26.3385 16.3442 25.4957C16.0476 24.6529 15.9431 23.7546 16.0381 22.8662C16.1331 21.9778 16.4253 21.1219 16.8934 20.3609C17.3614 19.5999 17.9936 18.953 18.7436 18.4675C19.4936 17.982 20.3425 17.6701 21.2285 17.5546C22.1144 17.4392 23.0149 17.523 23.8643 17.8C24.7137 18.077 25.4906 18.5402 26.1381 19.1558C26.7856 19.7713 27.2875 20.5238 27.6071 21.3581C28.0158 21.0609 28.4717 20.8348 28.9556 20.6891ZM19.0001 23.5001C19.0001 22.7044 19.3161 21.9414 19.8787 21.3788C20.4413 20.8161 21.2044 20.5001 22.0001 20.5001C22.7957 20.5001 23.5588 20.8161 24.1214 21.3788C24.684 21.9414 25.0001 22.7044 25.0001 23.5001C25.0001 24.2957 24.684 25.0588 24.1214 25.6214C23.5588 26.184 22.7957 26.5001 22.0001 26.5001C21.2044 26.5001 20.4413 26.184 19.8787 25.6214C19.3161 25.0588 19.0001 24.2957 19.0001 23.5001ZM22.0001 22.0001C21.6022 22.0001 21.2207 22.1581 20.9394 22.4394C20.6581 22.7207 20.5001 23.1022 20.5001 23.5001C20.5001 23.8979 20.6581 24.2794 20.9394 24.5607C21.2207 24.842 21.6022 25.0001 22.0001 25.0001C22.3979 25.0001 22.7794 24.842 23.0607 24.5607C23.342 24.2794 23.5001 23.8979 23.5001 23.5001C23.5001 23.1022 23.342 22.7207 23.0607 22.4394C22.7794 22.1581 22.3979 22.0001 22.0001 22.0001ZM33.2501 25.0001C33.2501 25.7957 32.934 26.5588 32.3714 27.1214C31.8088 27.684 31.0457 28.0001 30.2501 28.0001C29.4544 28.0001 28.6913 27.684 28.1287 27.1214C27.5661 26.5588 27.2501 25.7957 27.2501 25.0001C27.2501 24.2044 27.5661 23.4414 28.1287 22.8788C28.6913 22.3161 29.4544 22.0001 30.2501 22.0001C31.0457 22.0001 31.8088 22.3161 32.3714 22.8788C32.934 23.4414 33.2501 24.2044 33.2501 25.0001ZM35.5001 31.7501C35.5001 33.6176 34.0001 35.5001 30.2501 35.5001C26.5001 35.5001 25.0001 33.6251 25.0001 31.7501C25.0001 31.1533 25.2371 30.581 25.6591 30.1591C26.081 29.7371 26.6533 29.5001 27.2501 29.5001H33.2501C33.8468 29.5001 34.4191 29.7371 34.841 30.1591C35.263 30.581 35.5001 31.1533 35.5001 31.7501Z" fill="#AC7412"/>
</svg>
