<svg width="44" height="44" viewBox="0 0 44 44" fill="none" xmlns="http://www.w3.org/2000/svg">
<rect width="44" height="44" rx="13" fill="#FECCEB"/>
<g clip-path="url(#clip0_1160_568)">
<path d="M26.2234 13.8307C26.0476 14.0065 25.8092 14.1052 25.5606 14.1052C25.312 14.1052 25.0736 14.0065 24.8978 13.8307C24.6408 13.5728 24.3352 13.3683 23.9987 13.2291C23.6623 13.0899 23.3016 13.0188 22.9374 13.0198C22.1687 13.0198 21.4815 13.3282 20.9771 13.8307C20.8901 13.9178 20.7868 13.9868 20.673 14.0339C20.5593 14.081 20.4374 14.1053 20.3143 14.1053C20.0657 14.1053 19.8273 14.0065 19.6515 13.8307C19.5645 13.7437 19.4954 13.6403 19.4483 13.5266C19.4012 13.4129 19.377 13.291 19.377 13.1679C19.377 12.9193 19.4757 12.6809 19.6515 12.5051C20.0829 12.0734 20.5951 11.7311 21.159 11.4977C21.7228 11.2642 22.3272 11.1443 22.9374 11.1448C23.5477 11.1443 24.152 11.2642 24.7159 11.4977C25.2797 11.7311 25.792 12.0734 26.2234 12.5051C26.3991 12.6809 26.4979 12.9193 26.4979 13.1679C26.4979 13.4165 26.3991 13.6549 26.2234 13.8307ZM15.3381 12.9354C14.5099 13.4192 13.7609 14.0272 13.1171 14.7382L13.1162 14.7392C12.4703 15.4528 11.9381 16.2616 11.5384 17.1373C11.128 18.0358 10.8638 18.9941 10.7556 19.976C10.742 20.0984 10.7527 20.2222 10.787 20.3405C10.8214 20.4587 10.8786 20.5691 10.9556 20.6652C11.0325 20.7613 11.1277 20.8413 11.2356 20.9006C11.3434 20.96 11.4619 20.9975 11.5843 21.011C11.7067 21.0246 11.8305 21.0139 11.9488 20.9796C12.067 20.9452 12.1773 20.888 12.2735 20.811C12.3696 20.734 12.4496 20.6389 12.5089 20.531C12.5683 20.4232 12.6058 20.3047 12.6193 20.1823C12.7073 19.3985 12.9183 18.6334 13.2446 17.9154C13.887 16.5085 14.9486 15.3346 16.284 14.5545C16.3903 14.4924 16.4833 14.4099 16.5578 14.3118C16.6322 14.2138 16.6866 14.102 16.7179 13.9829C16.7492 13.8638 16.7566 13.7397 16.7399 13.6178C16.7232 13.4958 16.6827 13.3783 16.6206 13.272C16.5585 13.1657 16.476 13.0726 16.3779 12.9982C16.2799 12.9237 16.1681 12.8693 16.049 12.8381C15.8085 12.775 15.5528 12.81 15.3381 12.9354ZM29.4999 23.4063C29.4999 23.1577 29.5987 22.9192 29.7745 22.7434C29.9503 22.5676 30.1888 22.4688 30.4374 22.4688C30.6861 22.4688 30.9245 22.5676 31.1004 22.7434C31.2762 22.9192 31.3749 23.1577 31.3749 23.4063C31.3736 24.2521 31.0452 25.0647 30.4584 25.6738C29.8717 26.283 29.072 26.6415 28.2268 26.6745C28.4359 27.1048 28.5624 27.5829 28.5624 28.0938C28.5624 28.3425 28.4637 28.5809 28.2879 28.7568C28.112 28.9326 27.8736 29.0313 27.6249 29.0313C27.3763 29.0313 27.1378 28.9326 26.962 28.7568C26.7862 28.5809 26.6874 28.3425 26.6874 28.0938C26.6874 27.7209 26.5393 27.3632 26.2756 27.0995C26.0118 26.8357 25.6542 26.6876 25.2812 26.6876H19.4856C19.2369 26.6876 18.9985 26.5888 18.8227 26.413C18.6468 26.2372 18.5481 25.9987 18.5481 25.7501C18.5481 25.5014 18.6468 25.263 18.8227 25.0872C18.9985 24.9114 19.2369 24.8126 19.4856 24.8126H21.5312C21.9039 24.8118 22.2612 24.6634 22.5247 24.3999C22.7883 24.1363 22.9367 23.7791 22.9374 23.4063C22.9374 23.1577 23.0362 22.9192 23.212 22.7434C23.3878 22.5676 23.6263 22.4688 23.8749 22.4688C24.1236 22.4688 24.362 22.5676 24.5379 22.7434C24.7137 22.9192 24.8124 23.1577 24.8124 23.4063C24.8124 23.9117 24.6887 24.3851 24.4843 24.8126H28.0937C28.4664 24.8118 28.8237 24.6634 29.0872 24.3999C29.3508 24.1363 29.4992 23.7791 29.4999 23.4063Z" fill="#D83A9B"/>
<path d="M37 22.6666C37 22.0778 36.9578 21.5078 36.8931 20.9547C36.0428 13.6253 29.8263 7.93938 22.2709 7.9375H21.1159C13.3187 7.93844 7.00094 14.2562 7 22.0534C7 22.7851 7.14411 23.5096 7.42411 24.1856C7.70411 24.8616 8.11451 25.4758 8.63187 25.9931C9.67674 27.038 11.0939 27.625 12.5716 27.625H13.735C14.0503 28.9588 14.8064 30.1471 15.881 30.9978C16.9556 31.8485 18.2857 32.3117 19.6562 32.3125H26.3162L29.2375 35.2337C29.3358 35.332 29.4611 35.3988 29.5974 35.4259C29.7337 35.453 29.875 35.4391 30.0034 35.3859C30.1318 35.3327 30.2415 35.2427 30.3188 35.1272C30.3961 35.0117 30.4374 34.8759 30.4375 34.7369V32.2347C31.8785 32.055 33.2362 31.4604 34.3454 30.5231C35.4546 29.5859 36.2674 28.3464 36.685 26.9556C36.8191 26.5075 36.8959 26.035 36.9447 25.5541L36.9475 25.5466C36.9738 25.4603 37 25.375 37 25.2812C36.9994 25.2237 36.9969 25.1669 36.9925 25.1106L36.9859 25.0028C36.9866 24.9728 36.9888 24.9438 36.9925 24.9156C36.9975 24.8813 37 24.8469 37 24.8125V22.6666ZM34.8888 26.4203C34.5426 27.5808 33.8312 28.5985 32.8604 29.3223C31.8895 30.046 30.711 30.4372 29.5 30.4375H19.6562C18.6043 30.437 17.5905 30.0434 16.8136 29.3341C16.0368 28.6247 15.553 27.6507 15.4572 26.6031L15.4516 26.5431C15.4829 25.3255 15.9894 24.1685 16.8628 23.3195C17.7361 22.4705 18.907 21.9969 20.125 22C20.3736 22 20.6121 21.9012 20.7879 21.7254C20.9637 21.5496 21.0625 21.3111 21.0625 21.0625C21.0625 20.8139 20.9637 20.5754 20.7879 20.3996C20.6121 20.2238 20.3736 20.125 20.125 20.125C19.0241 20.125 17.9408 20.4019 16.975 20.9303C16.7907 20.5161 16.5327 20.1387 16.2137 19.8166C16.038 19.6408 15.7995 19.542 15.5509 19.542C15.3023 19.542 15.0639 19.6408 14.8881 19.8166C14.7123 19.9924 14.6136 20.2308 14.6136 20.4794C14.6136 20.728 14.7123 20.9664 14.8881 21.1422C15.1544 21.4094 15.3353 21.7516 15.4037 22.135C14.451 23.1253 13.8332 24.3898 13.6375 25.75H12.5716C12.0859 25.7508 11.6048 25.6555 11.1561 25.4697C10.7074 25.2838 10.2998 25.0111 9.95688 24.6672C9.61324 24.3243 9.34076 23.9168 9.15509 23.4683C8.96943 23.0197 8.87424 22.5389 8.875 22.0534C8.875 18.67 10.2437 15.6156 12.46 13.3975C13.595 12.2585 14.9441 11.3553 16.4297 10.74C17.9153 10.1247 19.508 9.8095 21.1159 9.8125H22.2709C28.5428 9.81062 33.7516 14.3125 34.8813 20.2553C33.8475 19.2471 32.5283 18.5817 31.1031 18.3494C31.5747 17.485 31.8438 16.4922 31.8438 15.4375C31.8438 15.1889 31.745 14.9504 31.5692 14.7746C31.3933 14.5988 31.1549 14.5 30.9062 14.5C30.6576 14.5 30.4192 14.5988 30.2433 14.7746C30.0675 14.9504 29.9688 15.1889 29.9688 15.4375C29.9698 15.9917 29.8611 16.5406 29.6491 17.0525C29.437 17.5645 29.1257 18.0295 28.7331 18.4206C28.342 18.8132 27.877 19.1245 27.365 19.3366C26.8531 19.5486 26.3042 19.6573 25.75 19.6562C25.5014 19.6562 25.2629 19.755 25.0871 19.9308C24.9113 20.1067 24.8125 20.3451 24.8125 20.5938C24.8125 20.8424 24.9113 21.0808 25.0871 21.2567C25.2629 21.4325 25.5014 21.5312 25.75 21.5312C27.1994 21.5321 28.6012 21.014 29.7016 20.0706L29.7166 20.0753C29.7979 20.1034 29.8828 20.1201 29.9688 20.125C31.3956 20.125 32.6791 20.7006 33.6147 21.6353C34.5127 22.5342 35.0458 23.7339 35.1109 25.0028C35.0977 25.4829 35.023 25.9592 34.8888 26.4203Z" fill="#D83A9B"/>
</g>
<defs>
<clipPath id="clip0_1160_568">
<rect width="30" height="30" fill="white" transform="translate(7 7)"/>
</clipPath>
</defs>
</svg>
