<svg width="44" height="44" viewBox="0 0 44 44" fill="none" xmlns="http://www.w3.org/2000/svg">
<rect width="44" height="44" rx="13" fill="#C9E590"/>
<path d="M15.2098 28.558C15.5287 28.558 15.7951 28.4501 16.009 28.2342C16.2228 28.0184 16.3298 27.7515 16.3298 27.4336C16.3298 27.1157 16.2224 26.8493 16.0075 26.6345C15.7926 26.4196 15.5253 26.3126 15.2054 26.3136C14.8856 26.3146 14.6197 26.4225 14.4077 26.6374C14.1958 26.8522 14.0888 27.1191 14.0869 27.438C14.0849 27.7569 14.1924 28.0233 14.4092 28.2372C14.626 28.4511 14.8919 28.558 15.2098 28.558ZM15.2083 24.2938C15.4154 24.2938 15.5885 24.2238 15.7275 24.0838C15.8665 23.9438 15.936 23.7708 15.936 23.5647V17.1713C15.936 16.9652 15.866 16.7922 15.726 16.6522C15.586 16.5122 15.4125 16.4422 15.2054 16.4422C14.9983 16.4422 14.8253 16.5122 14.6863 16.6522C14.5472 16.7922 14.4777 16.9652 14.4777 17.1713V23.5661C14.4777 23.7722 14.5477 23.9453 14.6877 24.0853C14.8277 24.2253 15.0013 24.2953 15.2083 24.2953M21.0417 26.1459H29.7917C29.9988 26.1459 30.1718 26.0759 30.3108 25.9359C30.4499 25.7959 30.5199 25.6224 30.5208 25.4153C30.5218 25.2082 30.4518 25.0351 30.3108 24.8961C30.1699 24.7571 29.9968 24.6876 29.7917 24.6876H21.0417C20.8346 24.6876 20.6615 24.7576 20.5225 24.8976C20.3835 25.0376 20.3135 25.2111 20.3125 25.4182C20.3115 25.6253 20.3815 25.7983 20.5225 25.9374C20.6635 26.0764 20.8365 26.1459 21.0417 26.1459ZM21.0417 20.3126H29.7917C29.9988 20.3126 30.1718 20.2426 30.3108 20.1026C30.4499 19.9626 30.5199 19.789 30.5208 19.582C30.5218 19.3749 30.4518 19.2018 30.3108 19.0628C30.1699 18.9238 29.9968 18.8542 29.7917 18.8542H21.0417C20.8346 18.8542 20.6615 18.9242 20.5225 19.0642C20.3835 19.2042 20.3135 19.3778 20.3125 19.5849C20.3115 19.792 20.3815 19.965 20.5225 20.104C20.6635 20.2431 20.8365 20.3126 21.0417 20.3126ZM11.7317 32.7084C11.0599 32.7084 10.4994 32.4838 10.0502 32.0347C9.60104 31.5855 9.37597 31.0245 9.375 30.3517V14.6484C9.375 13.9766 9.60007 13.4161 10.0502 12.967C10.5003 12.5178 11.0603 12.2927 11.7302 12.2917H33.2698C33.9406 12.2917 34.5006 12.5168 34.9498 12.967C35.399 13.4171 35.624 13.9776 35.625 14.6484V30.3532C35.625 31.024 35.3999 31.5845 34.9498 32.0347C34.4997 32.4848 33.9397 32.7094 33.2698 32.7084H11.7317ZM11.7317 31.2501H33.2698C33.4934 31.2501 33.699 31.1567 33.8867 30.9701C34.0743 30.7834 34.1676 30.5773 34.1667 30.3517V14.6484C34.1667 14.4238 34.0733 14.2177 33.8867 14.0301C33.7 13.8424 33.4944 13.7491 33.2698 13.7501H11.7302C11.5066 13.7501 11.301 13.8434 11.1133 14.0301C10.9257 14.2167 10.8324 14.4229 10.8333 14.6484V30.3532C10.8333 30.5768 10.9267 30.7824 11.1133 30.9701C11.3 31.1577 11.5056 31.2511 11.7302 31.2501" fill="#677A42"/>
</svg>
