<svg width="43" height="43" viewBox="0 0 43 43" fill="none" xmlns="http://www.w3.org/2000/svg">
<path d="M23.5156 30.2344C23.5156 30.633 23.3974 31.0227 23.1759 31.3542C22.9545 31.6857 22.6397 31.944 22.2714 32.0966C21.903 32.2491 21.4978 32.289 21.1068 32.2113C20.7158 32.1335 20.3566 31.9415 20.0747 31.6596C19.7929 31.3777 19.6009 31.0186 19.5231 30.6276C19.4453 30.2366 19.4853 29.8313 19.6378 29.463C19.7904 29.0947 20.0487 28.7799 20.3802 28.5584C20.7117 28.337 21.1014 28.2188 21.5 28.2188C22.0346 28.2188 22.5473 28.4311 22.9253 28.8091C23.3033 29.1871 23.5156 29.6998 23.5156 30.2344ZM21.5 12.0938C17.7946 12.0938 14.7813 14.8064 14.7813 18.1406V18.8125C14.7813 19.1689 14.9228 19.5107 15.1748 19.7627C15.4268 20.0147 15.7686 20.1562 16.125 20.1562C16.4814 20.1562 16.8232 20.0147 17.0752 19.7627C17.3272 19.5107 17.4688 19.1689 17.4688 18.8125V18.1406C17.4688 16.293 19.2778 14.7812 21.5 14.7812C23.7222 14.7812 25.5313 16.293 25.5313 18.1406C25.5313 19.9883 23.7222 21.5 21.5 21.5C21.1436 21.5 20.8018 21.6416 20.5498 21.8936C20.2978 22.1456 20.1563 22.4874 20.1563 22.8438V24.1875C20.1563 24.5439 20.2978 24.8857 20.5498 25.1377C20.8018 25.3897 21.1436 25.5312 21.5 25.5312C21.8564 25.5312 22.1982 25.3897 22.4502 25.1377C22.7022 24.8857 22.8438 24.5439 22.8438 24.1875V24.0666C25.9075 23.5039 28.2188 21.0599 28.2188 18.1406C28.2188 14.8064 25.2054 12.0938 21.5 12.0938ZM38.9688 21.5C38.9688 24.955 37.9442 28.3324 36.0247 31.2051C34.1053 34.0778 31.377 36.3169 28.185 37.639C24.993 38.9612 21.4806 39.3071 18.092 38.6331C14.7034 37.9591 11.5908 36.2953 9.14774 33.8523C6.70469 31.4092 5.04095 28.2966 4.36692 24.908C3.69288 21.5194 4.03882 18.007 5.36099 14.815C6.68316 11.623 8.92217 8.89476 11.7949 6.97527C14.6676 5.05577 18.045 4.03125 21.5 4.03125C26.1315 4.03614 30.5719 5.87816 33.8469 9.15313C37.1218 12.4281 38.9639 16.8685 38.9688 21.5ZM36.2813 21.5C36.2813 18.5765 35.4144 15.7187 33.7902 13.288C32.166 10.8572 29.8575 8.96266 27.1565 7.84391C24.4556 6.72515 21.4836 6.43243 18.6163 7.00277C15.749 7.57311 13.1153 8.98088 11.0481 11.0481C8.98089 13.1153 7.57311 15.749 7.00278 18.6163C6.43244 21.4836 6.72516 24.4556 7.84391 27.1565C8.96267 29.8575 10.8572 32.166 13.288 33.7902C15.7187 35.4143 18.5766 36.2812 21.5 36.2812C25.4189 36.2768 29.176 34.7181 31.947 31.947C34.7181 29.176 36.2768 25.4189 36.2813 21.5Z" fill="black"/>
</svg>
