<svg width="20" height="20" viewBox="0 0 20 20" fill="none" xmlns="http://www.w3.org/2000/svg">
<path d="M2 6C3.403 3.04 6.463 1 10 1C11.1819 1 12.3522 1.23279 13.4442 1.68508C14.5361 2.13738 15.5282 2.80031 16.364 3.63604C17.1997 4.47177 17.8626 5.46392 18.3149 6.55585C18.7672 7.64778 19 8.8181 19 10C19 11.1819 18.7672 12.3522 18.3149 13.4442C17.8626 14.5361 17.1997 15.5282 16.364 16.364C15.5282 17.1997 14.5361 17.8626 13.4442 18.3149C12.3522 18.7672 11.1819 19 10 19C7.61305 19 5.32387 18.0518 3.63604 16.364C1.94821 14.6761 1 12.3869 1 10M1 1V7H7" stroke="black" stroke-width="2"/>
</svg>
