<svg width="44" height="44" viewBox="0 0 44 44" fill="none" xmlns="http://www.w3.org/2000/svg">
<rect width="44" height="44" rx="13" fill="#CDE8FD"/>
<path d="M22 35.125C19.4041 35.125 16.8665 34.3552 14.7081 32.913C12.5498 31.4709 10.8675 29.421 9.87409 27.0227C8.88069 24.6244 8.62077 21.9854 9.1272 19.4394C9.63363 16.8934 10.8837 14.5548 12.7192 12.7192C14.5548 10.8837 16.8934 9.63363 19.4394 9.1272C21.9854 8.62077 24.6244 8.88069 27.0227 9.87409C29.421 10.8675 31.4709 12.5498 32.913 14.7081C34.3552 16.8665 35.125 19.4041 35.125 22C35.125 25.481 33.7422 28.8194 31.2808 31.2808C28.8194 33.7422 25.481 35.125 22 35.125ZM22 10.75C19.775 10.75 17.5999 11.4098 15.7498 12.646C13.8998 13.8821 12.4578 15.6391 11.6064 17.6948C10.7549 19.7505 10.5321 22.0125 10.9662 24.1948C11.4003 26.3771 12.4717 28.3816 14.0451 29.955C15.6184 31.5283 17.623 32.5998 19.8052 33.0338C21.9875 33.4679 24.2495 33.2451 26.3052 32.3937C28.3609 31.5422 30.1179 30.1002 31.354 28.2502C32.5902 26.4001 33.25 24.225 33.25 22C33.25 19.0163 32.0647 16.1548 29.955 14.0451C27.8452 11.9353 24.9837 10.75 22 10.75Z" fill="#0B6ACA"/>
<path d="M26.3031 27.625L21.0625 22.3844V13.5625H22.9375V21.6062L27.625 26.3031L26.3031 27.625Z" fill="#0B6ACA"/>
</svg>
